<?xml version="1.0" encoding="UTF-8"?>
<svg width="844px" height="599px" viewBox="0 0 844 599" version="1.1" xmlns="http://www.w3.org/2000/svg" xmlns:xlink="http://www.w3.org/1999/xlink">
    <!-- Generator: Sketch 50.1 (55044) - http://www.bohemiancoding.com/sketch -->
    <title>Process</title>
    <desc>Created with Sketch.</desc>
    <defs>
        <polygon id="path-1" points="0.776 0.446 91.551 0.446 91.551 10.592 0.776 10.592"></polygon>
        <path d="M466.235,268.554 L0.473,268.554 L0.473,22.728 C0.473,10.522 10.367,0.627 22.574,0.627 L444.135,0.627 C456.341,0.627 466.235,10.522 466.235,22.728 L466.235,268.554" id="path-3"></path>
        <linearGradient x1="78.5137044%" y1="1.38567595%" x2="25.6910182%" y2="95.987937%" id="linearGradient-5">
            <stop stop-color="#23BECD" offset="0%"></stop>
            <stop stop-color="#50E797" offset="100%"></stop>
        </linearGradient>
        <path d="M47.268,263.398 L0.945,263.398 L0.945,0.369 L43.624,0.369 C45.637,0.369 47.268,2.001 47.268,4.013 L47.268,263.398" id="path-6"></path>
        <linearGradient x1="0%" y1="49.9998099%" x2="99.9997841%" y2="49.9998099%" id="linearGradient-8">
            <stop stop-color="#29B9B4" offset="0%"></stop>
            <stop stop-color="#21B8BC" offset="100%"></stop>
        </linearGradient>
        <path d="M318.109,0.627 L22.574,0.627 C10.367,0.627 0.473,10.522 0.473,22.728 L0.473,223.432 L318.109,0.627" id="path-9"></path>
        <path d="M41.771,4.273 C41.818,3.049 41.815,1.836 41.795,0.627 L22.574,0.627 C10.367,0.627 0.473,10.522 0.473,22.728 L0.473,66.374 C24.035,55.245 40.732,31.636 41.771,4.273" id="path-11"></path>
        <linearGradient x1="95.1452229%" y1="-4.94775427%" x2="-28.7852462%" y2="92.5319786%" id="linearGradient-13">
            <stop stop-color="#50D6B5" offset="0%"></stop>
            <stop stop-color="#49D4AC" offset="100%"></stop>
        </linearGradient>
        <path d="M466.235,0.554 L0.473,0.554 L0.473,54.656 C0.473,61.327 5.881,66.736 12.553,66.736 L445.047,66.736 C456.749,66.736 466.235,57.249 466.235,45.547 L466.235,0.554" id="path-14"></path>
        <linearGradient x1="0%" y1="50%" x2="100%" y2="50%" id="linearGradient-16">
            <stop stop-color="#9DA7B3" offset="0%"></stop>
            <stop stop-color="#EAEBED" offset="100%"></stop>
        </linearGradient>
        <path d="M59.434,160.553 L59.434,15.583 C59.434,7.341 52.752,0.659 44.51,0.659 L0.086,0.659 L0.086,160.553 L59.434,160.553" id="path-17"></path>
        <linearGradient x1="50%" y1="0.783644164%" x2="50%" y2="107.249178%" id="linearGradient-19">
            <stop stop-color="#29B9B4" offset="0%"></stop>
            <stop stop-color="#29B9B4" offset="100%"></stop>
        </linearGradient>
        <path d="M0.945,0.553 L0.945,37.976 C0.945,40.97 3.373,43.398 6.368,43.398 L41.94,43.398 C44.883,43.398 47.268,41.013 47.268,38.071 L47.268,0.553 L0.945,0.553" id="path-20"></path>
        <linearGradient x1="7.95069404%" y1="15.229315%" x2="199.183343%" y2="159.591551%" id="linearGradient-22">
            <stop stop-color="#9DA7B3" offset="0%"></stop>
            <stop stop-color="#EAEBED" offset="100%"></stop>
        </linearGradient>
        <path d="M34.135,0.625 L18,0.625 C7.555,9.107 0.878,22.045 0.878,36.548 C0.878,62.096 21.589,82.807 47.137,82.807 C50.252,82.807 53.293,82.495 56.235,81.907 L56.235,22.726 C56.235,10.52 46.341,0.625 34.135,0.625" id="path-23"></path>
        <path d="M300.254,200.784 L268.773,0.134 L15.377,0.134 C7.186,0.134 0.546,6.774 0.546,14.965 L0.546,302.203 C0.546,310.395 7.186,317.034 15.377,317.034 L253.489,317.034 C279.316,317.034 300.254,296.098 300.254,270.271 C300.254,244.443 300.254,200.784 300.254,200.784" id="path-25"></path>
        <linearGradient x1="0%" y1="49.9999684%" x2="99.9996663%" y2="49.9999684%" id="linearGradient-27">
            <stop stop-color="#46A1FF" offset="0%"></stop>
            <stop stop-color="#572FF0" offset="100%"></stop>
        </linearGradient>
        <path d="M81.247,9.605 L60.951,9.605 C58.5,9.605 56.513,7.618 56.513,5.167 C56.513,2.716 58.5,0.729 60.951,0.729 L81.247,0.729 C83.698,0.729 85.684,2.716 85.684,5.167 C85.684,7.618 83.698,9.605 81.247,9.605 Z M126.913,9.605 L106.616,9.605 C104.166,9.605 102.179,7.618 102.179,5.167 C102.179,2.716 104.166,0.729 106.616,0.729 L126.913,0.729 C129.364,0.729 131.351,2.716 131.351,5.167 C131.351,7.618 129.364,9.605 126.913,9.605 Z M172.578,9.605 L152.283,9.605 C149.832,9.605 147.845,7.618 147.845,5.167 C147.845,2.716 149.832,0.729 152.283,0.729 L172.578,0.729 C175.03,0.729 177.016,2.716 177.016,5.167 C177.016,7.618 175.03,9.605 172.578,9.605 Z M218.244,9.605 L197.949,9.605 C195.497,9.605 193.511,7.618 193.511,5.167 C193.511,2.716 195.497,0.729 197.949,0.729 L218.244,0.729 C220.696,0.729 222.682,2.716 222.682,5.167 C222.682,7.618 220.696,9.605 218.244,9.605 Z M15.285,9.715 C13.095,9.715 11.189,8.094 10.892,5.863 C10.568,3.433 12.275,1.201 14.704,0.878 C15.444,0.78 16.2,0.729 16.951,0.729 L35.581,0.729 C38.032,0.729 40.019,2.716 40.019,5.167 C40.019,7.618 38.032,9.605 35.581,9.605 L16.951,9.605 C16.59,9.605 16.229,9.628 15.877,9.676 C15.679,9.702 15.48,9.715 15.285,9.715 Z M4.512,49.829 C2.061,49.829 0.075,47.843 0.075,45.391 L0.075,25.095 C0.075,22.644 2.061,20.657 4.512,20.657 C6.963,20.657 8.95,22.644 8.95,25.095 L8.95,45.391 C8.95,47.843 6.963,49.829 4.512,49.829 Z M4.512,95.495 C2.061,95.495 0.075,93.508 0.075,91.057 L0.075,70.761 C0.075,68.31 2.061,66.323 4.512,66.323 C6.963,66.323 8.95,68.31 8.95,70.761 L8.95,91.057 C8.95,93.508 6.963,95.495 4.512,95.495 Z M4.512,141.16 C2.061,141.16 0.075,139.172 0.075,136.722 L0.075,116.426 C0.075,113.976 2.061,111.989 4.512,111.989 C6.963,111.989 8.95,113.976 8.95,116.426 L8.95,136.722 C8.95,139.172 6.963,141.16 4.512,141.16 Z M4.512,186.826 C2.061,186.826 0.075,184.839 0.075,182.389 L0.075,162.092 C0.075,159.642 2.061,157.655 4.512,157.655 C6.963,157.655 8.95,159.642 8.95,162.092 L8.95,182.389 C8.95,184.839 6.963,186.826 4.512,186.826 Z M4.512,232.492 C2.061,232.492 0.075,230.505 0.075,228.055 L0.075,207.759 C0.075,205.309 2.061,203.322 4.512,203.322 C6.963,203.322 8.95,205.309 8.95,207.759 L8.95,228.055 C8.95,230.505 6.963,232.492 4.512,232.492 Z M254.073,247.946 C253.632,247.946 253.183,247.879 252.74,247.741 C250.402,247.004 249.103,244.513 249.838,242.175 C250.897,238.81 251.433,235.293 251.433,231.726 L251.433,223.385 C251.433,220.935 253.42,218.948 255.871,218.948 C258.323,218.948 260.309,220.935 260.309,223.385 L260.309,231.726 C260.309,236.199 259.635,240.609 258.305,244.837 C257.709,246.734 255.959,247.946 254.073,247.946 Z M12.703,274.643 C12.2,274.643 11.688,274.556 11.187,274.374 C4.54,271.958 0.075,265.581 0.075,258.508 L0.075,253.425 C0.075,250.974 2.061,248.987 4.512,248.987 C6.963,248.987 8.95,250.974 8.95,253.425 L8.95,258.508 C8.95,261.864 11.068,264.887 14.22,266.033 C16.524,266.87 17.712,269.416 16.875,271.721 C16.219,273.524 14.516,274.643 12.703,274.643 Z M220.635,275.185 C218.384,275.185 216.456,273.48 216.225,271.193 C215.979,268.755 217.756,266.578 220.195,266.332 C226.179,265.728 231.933,263.558 236.836,260.058 C238.83,258.635 241.601,259.097 243.026,261.09 C244.45,263.085 243.988,265.857 241.993,267.282 C235.835,271.679 228.606,274.404 221.086,275.163 C220.934,275.178 220.784,275.185 220.635,275.185 Z M58.282,275.385 L37.985,275.385 C35.534,275.385 33.547,273.397 33.547,270.947 C33.547,268.496 35.534,266.509 37.985,266.509 L58.282,266.509 C60.732,266.509 62.719,268.496 62.719,270.947 C62.719,273.397 60.732,275.385 58.282,275.385 Z M103.947,275.385 L83.651,275.385 C81.2,275.385 79.214,273.397 79.214,270.947 C79.214,268.496 81.2,266.509 83.651,266.509 L103.947,266.509 C106.398,266.509 108.385,268.496 108.385,270.947 C108.385,273.397 106.398,275.385 103.947,275.385 Z M149.613,275.385 L129.317,275.385 C126.866,275.385 124.879,273.397 124.879,270.947 C124.879,268.496 126.866,266.509 129.317,266.509 L149.613,266.509 C152.064,266.509 154.051,268.496 154.051,270.947 C154.051,273.397 152.064,275.385 149.613,275.385 Z M195.279,275.385 L174.983,275.385 C172.532,275.385 170.545,273.397 170.545,270.947 C170.545,268.496 172.532,266.509 174.983,266.509 L195.279,266.509 C197.729,266.509 199.716,268.496 199.716,270.947 C199.716,273.397 197.729,275.385 195.279,275.385 Z" id="path-28"></path>
        <linearGradient x1="-0.000384269542%" y1="50%" x2="100%" y2="50%" id="linearGradient-30">
            <stop stop-color="#B5D9FF" offset="0%"></stop>
            <stop stop-color="#9980F6" offset="100%"></stop>
        </linearGradient>
        <path d="M0.489,0.369 L0.489,270.506 C26.316,270.506 47.254,291.443 47.254,317.271 L47.254,47.134 C47.254,21.306 26.316,0.369 0.489,0.369" id="path-31"></path>
        <linearGradient x1="0%" y1="50%" x2="99.9991447%" y2="50%" id="linearGradient-33">
            <stop stop-color="#398AFC" offset="0%"></stop>
            <stop stop-color="#E4ABFF" offset="100%"></stop>
        </linearGradient>
        <path d="M13.071,263.421 L6.388,263.421 C3.313,263.421 0.819,260.928 0.819,257.853 L0.819,5.962 C0.819,2.886 3.313,0.392 6.388,0.392 L13.071,0.392 L13.071,263.421" id="path-34"></path>
        <linearGradient x1="50%" y1="100.499185%" x2="50%" y2="-16.3088481%" id="linearGradient-36">
            <stop stop-color="#FF4A91" offset="0%"></stop>
            <stop stop-color="#FA9A58" offset="100%"></stop>
        </linearGradient>
        <polygon id="path-37" points="0.096 0.801 22.142 0.801 22.142 6.962 0.096 6.962"></polygon>
        <linearGradient x1="50%" y1="3854.39052%" x2="50%" y2="-572.829086%" id="linearGradient-39">
            <stop stop-color="#FF4A91" offset="0%"></stop>
            <stop stop-color="#FA9A58" offset="100%"></stop>
        </linearGradient>
        <polygon id="path-40" points="0.61 0.727 13.142 0.727 13.142 6.888 0.61 6.888"></polygon>
        <linearGradient x1="50%" y1="3595.89352%" x2="50%" y2="-831.326083%" id="linearGradient-42">
            <stop stop-color="#FF4A91" offset="0%"></stop>
            <stop stop-color="#FA9A58" offset="100%"></stop>
        </linearGradient>
        <polygon id="path-43" points="0.096 0.653 22.142 0.653 22.142 6.814 0.096 6.814"></polygon>
        <linearGradient x1="50%" y1="3337.39653%" x2="50%" y2="-1089.82308%" id="linearGradient-45">
            <stop stop-color="#FF4A91" offset="0%"></stop>
            <stop stop-color="#FA9A58" offset="100%"></stop>
        </linearGradient>
        <polygon id="path-46" points="0.61 0.578 13.142 0.578 13.142 6.74 0.61 6.74"></polygon>
        <linearGradient x1="50%" y1="3078.4161%" x2="50%" y2="-1348.08504%" id="linearGradient-48">
            <stop stop-color="#FF4A91" offset="0%"></stop>
            <stop stop-color="#FA9A58" offset="100%"></stop>
        </linearGradient>
        <polygon id="path-49" points="0.096 0.504 22.142 0.504 22.142 6.665 0.096 6.665"></polygon>
        <linearGradient x1="50%" y1="2820.35384%" x2="50%" y2="-1606.76838%" id="linearGradient-51">
            <stop stop-color="#FF4A91" offset="0%"></stop>
            <stop stop-color="#FA9A58" offset="100%"></stop>
        </linearGradient>
        <polygon id="path-52" points="0.61 0.43 13.142 0.43 13.142 6.591 0.61 6.591"></polygon>
        <linearGradient x1="50%" y1="2561.85684%" x2="50%" y2="-1865.26538%" id="linearGradient-54">
            <stop stop-color="#FF4A91" offset="0%"></stop>
            <stop stop-color="#FA9A58" offset="100%"></stop>
        </linearGradient>
        <linearGradient x1="50%" y1="2303.37608%" x2="50%" y2="-2123.74615%" id="linearGradient-55">
            <stop stop-color="#FF4A91" offset="0%"></stop>
            <stop stop-color="#FA9A58" offset="100%"></stop>
        </linearGradient>
        <polygon id="path-56" points="0.61 0.281 13.142 0.281 13.142 6.442 0.61 6.442"></polygon>
        <linearGradient x1="50%" y1="2044.89531%" x2="50%" y2="-2382.22691%" id="linearGradient-58">
            <stop stop-color="#FF4A91" offset="0%"></stop>
            <stop stop-color="#FA9A58" offset="100%"></stop>
        </linearGradient>
        <linearGradient x1="50%" y1="1786.39831%" x2="50%" y2="-2640.72391%" id="linearGradient-59">
            <stop stop-color="#FF4A91" offset="0%"></stop>
            <stop stop-color="#FA9A58" offset="100%"></stop>
        </linearGradient>
        <polygon id="path-60" points="0.61 0.133 13.142 0.133 13.142 6.294 0.61 6.294"></polygon>
        <linearGradient x1="50%" y1="1527.93378%" x2="50%" y2="-2899.28583%" id="linearGradient-62">
            <stop stop-color="#FF4A91" offset="0%"></stop>
            <stop stop-color="#FA9A58" offset="100%"></stop>
        </linearGradient>
        <linearGradient x1="50%" y1="1269.45301%" x2="50%" y2="-3157.7666%" id="linearGradient-63">
            <stop stop-color="#FF4A91" offset="0%"></stop>
            <stop stop-color="#FA9A58" offset="100%"></stop>
        </linearGradient>
        <polygon id="path-64" points="0.61 0.984 13.142 0.984 13.142 7.145 0.61 7.145"></polygon>
        <linearGradient x1="50%" y1="1010.95601%" x2="50%" y2="-3416.26359%" id="linearGradient-66">
            <stop stop-color="#FF4A91" offset="0%"></stop>
            <stop stop-color="#FA9A58" offset="100%"></stop>
        </linearGradient>
        <linearGradient x1="50%" y1="752.353132%" x2="50%" y2="-3674.148%" id="linearGradient-67">
            <stop stop-color="#FF4A91" offset="0%"></stop>
            <stop stop-color="#FA9A58" offset="100%"></stop>
        </linearGradient>
        <polygon id="path-68" points="0.61 0.835 13.142 0.835 13.142 6.996 0.61 6.996"></polygon>
        <linearGradient x1="50%" y1="493.962019%" x2="50%" y2="-3933.25759%" id="linearGradient-70">
            <stop stop-color="#FF4A91" offset="0%"></stop>
            <stop stop-color="#FA9A58" offset="100%"></stop>
        </linearGradient>
        <linearGradient x1="50%" y1="235.465022%" x2="50%" y2="-4191.75459%" id="linearGradient-71">
            <stop stop-color="#FF4A91" offset="0%"></stop>
            <stop stop-color="#FA9A58" offset="100%"></stop>
        </linearGradient>
        <path d="M29.756,0.356 L0.974,0.356 C2.445,5.065 4.658,9.443 7.461,13.372 L29.756,13.372 C33.35,13.372 36.263,10.458 36.263,6.864 C36.263,3.27 33.35,0.356 29.756,0.356" id="path-72"></path>
        <linearGradient x1="68.6276177%" y1="3.36432084%" x2="-8.86253507%" y2="148.050092%" id="linearGradient-74">
            <stop stop-color="#B8C0C8" offset="0%"></stop>
            <stop stop-color="#EAEBED" offset="100%"></stop>
        </linearGradient>
        <path d="M152.634,40.978 L143.001,40.978 C140.746,40.978 138.919,42.806 138.919,45.061 C138.919,47.316 140.746,49.144 143.001,49.144 L152.634,49.144 C154.889,49.144 156.717,47.316 156.717,45.061 C156.717,42.806 154.889,40.978 152.634,40.978 Z M124.338,40.978 L112.674,40.978 C110.419,40.978 108.591,42.806 108.591,45.061 C108.591,47.316 110.419,49.144 112.674,49.144 L124.338,49.144 C126.593,49.144 128.421,47.316 128.421,45.061 C128.421,42.806 126.593,40.978 124.338,40.978 Z M16.637,40.978 L4.973,40.978 C2.718,40.978 0.89,42.806 0.89,45.061 C0.89,47.316 2.718,49.144 4.973,49.144 L16.637,49.144 C18.892,49.144 20.72,47.316 20.72,45.061 C20.72,42.806 18.892,40.978 16.637,40.978 Z M49.016,45.061 C49.016,42.806 47.189,40.978 44.934,40.978 L35.3,40.978 C33.046,40.978 31.218,42.806 31.218,45.061 C31.218,47.316 33.046,49.144 35.3,49.144 L44.934,49.144 C47.189,49.144 49.016,47.316 49.016,45.061 Z M79.18,22.97 C81.435,22.97 83.263,21.142 83.263,18.887 L83.263,4.921 C83.263,2.666 81.435,0.838 79.18,0.838 C76.926,0.838 75.098,2.666 75.098,4.921 L75.098,18.887 C75.098,21.142 76.926,22.97 79.18,22.97 Z M120.488,86.823 C115.928,91.382 110.74,95.08 105.128,97.867 L94.364,70.724 C93.533,68.628 91.162,67.602 89.064,68.434 C86.969,69.265 85.943,71.637 86.774,73.734 L97.575,100.973 C91.718,102.909 85.529,103.932 79.18,103.932 C72.862,103.932 66.696,102.923 60.788,100.962 L71.586,73.734 C72.417,71.637 71.391,69.265 69.296,68.434 C67.199,67.601 64.827,68.628 63.996,70.724 L51.688,101.763 C51.682,101.776 51.674,101.785 51.669,101.798 C51.663,101.814 51.661,101.83 51.655,101.846 L35.615,142.295 C34.783,144.391 35.809,146.764 37.906,147.596 C38.399,147.791 38.908,147.884 39.409,147.884 C41.034,147.884 42.57,146.908 43.205,145.305 L57.774,108.565 C64.645,110.9 71.824,112.097 79.18,112.097 C86.577,112.097 93.784,110.882 100.591,108.577 L115.155,145.305 C115.79,146.908 117.326,147.884 118.951,147.884 C119.451,147.884 119.961,147.79 120.454,147.596 C122.551,146.764 123.576,144.391 122.745,142.295 L108.15,105.49 C114.78,102.281 120.899,97.956 126.261,92.595 C127.856,91.001 127.856,88.415 126.262,86.823 C124.668,85.229 122.083,85.228 120.488,86.823 Z M79.18,34.492 C85.007,34.492 89.748,39.234 89.748,45.061 C89.748,50.888 85.007,55.629 79.18,55.629 C73.353,55.629 68.612,50.888 68.612,45.061 C68.612,39.234 73.353,34.492 79.18,34.492 Z M79.18,63.794 C89.51,63.794 97.913,55.39 97.913,45.061 C97.913,34.731 89.51,26.327 79.18,26.327 C68.851,26.327 60.447,34.731 60.447,45.061 C60.447,55.39 68.851,63.794 79.18,63.794 Z" id="path-75"></path>
        <linearGradient x1="-10.7786199%" y1="50.9350815%" x2="137.074448%" y2="49.0614502%" id="linearGradient-77">
            <stop stop-color="#B5D9FF" offset="0%"></stop>
            <stop stop-color="#9980F6" offset="100%"></stop>
        </linearGradient>
        <path d="M63.943,11.044 L63.943,51.6 C63.943,58.252 58.551,63.643 51.9,63.643 L11.343,63.643 C4.671,63.643 -0.339,69.751 0.968,76.293 C6.999,106.488 34.204,129.041 66.445,127.816 C99.73,126.552 126.851,99.43 128.116,66.146 C129.34,33.905 106.786,6.7 76.592,0.669 C70.05,-0.638 63.943,4.372 63.943,11.044" id="path-78"></path>
        <linearGradient x1="85.8712764%" y1="87.8090595%" x2="14.8511939%" y2="12.9961631%" id="linearGradient-80">
            <stop stop-color="#39B8FC" offset="0%"></stop>
            <stop stop-color="#E4ABFF" offset="100%"></stop>
        </linearGradient>
        <path d="M53.280802,0.711 L53.462822,0.711 C59.0818396,0.760942468 63.845,5.43136374 63.845,11.313 L63.845,55.088 C63.845,59.964 59.892,63.916 55.017,63.916 L11.241,63.916 C4.638,63.916 -0.439,57.911 0.837,51.432 C5.852,25.978 25.907,5.923 51.361,0.908 C52.0074853,0.780678625 52.6492512,0.716610107 53.280803,0.710999991 L53.280802,0.711 Z" id="path-81"></path>
        <linearGradient x1="11.8054525%" y1="5.28269275%" x2="19.2985823%" y2="5.28269275%" id="linearGradient-83">
            <stop stop-color="#FF4A91" offset="0%"></stop>
            <stop stop-color="#FA9A58" offset="100%"></stop>
        </linearGradient>
        <path d="M94.235,45.547 L94.235,0.553 L72.309,0.553 C67.753,8.963 64.775,18.354 63.828,28.344 C60.633,27.779 57.349,27.467 53.992,27.467 C28.879,27.467 7.624,43.978 0.484,66.736 L73.047,66.736 C75.972,66.736 78.76,66.143 81.295,65.071 C88.899,61.854 94.235,54.324 94.235,45.547" id="path-84"></path>
        <linearGradient x1="47.343495%" y1="96.817914%" x2="77.2525093%" y2="-16.8342324%" id="linearGradient-86">
            <stop stop-color="#9FC5E2" offset="0%"></stop>
            <stop stop-color="#A8CFEB" offset="100%"></stop>
        </linearGradient>
        <path d="M122.566,0.66 L0.546,0.66 L0.546,30.776 L21.187,30.776 C24.668,30.776 26.082,35.255 23.233,37.254 L0.546,53.167 L0.546,92.191 L124.102,5.523 C126.241,4.022 125.179,0.66 122.566,0.66" id="path-87"></path>
        <linearGradient x1="-20.9327691%" y1="66.1830418%" x2="108.291775%" y2="-33.7226732%" id="linearGradient-89">
            <stop stop-color="#348BFD" offset="0%"></stop>
            <stop stop-color="#386AF9" offset="100%"></stop>
        </linearGradient>
        <path d="M115.654,37.911 L36.293,93.578 C33.881,95.271 30.561,93.544 30.561,90.598 L30.561,37.002 C30.561,33.847 33.119,31.289 36.274,31.289 L113.563,31.289 C117.121,31.289 118.567,35.868 115.654,37.911 Z M217.2,0.503 L7.701,0.503 C3.458,0.503 0.018,3.943 0.018,8.186 L0.018,153.659 C0.018,155.872 2.51,157.168 4.322,155.898 L218.769,5.474 C220.956,3.94 219.871,0.503 217.2,0.503 Z" id="path-90"></path>
        <linearGradient x1="50.4414866%" y1="-2.60688316%" x2="41.2204131%" y2="120.091743%" id="linearGradient-92">
            <stop stop-color="#FFE13E" offset="0%"></stop>
            <stop stop-color="#FFAC45" offset="100%"></stop>
        </linearGradient>
        <path d="M164.076,12.238 L169.846,12.238 L169.846,0.503 L164.076,0.503 L164.076,12.238 Z M134.251,12.238 L140.02,12.238 L140.02,0.503 L134.251,0.503 L134.251,12.238 Z M149.164,21.147 L154.933,21.147 L154.933,0.503 L149.164,0.503 L149.164,21.147 Z M104.425,12.238 L110.194,12.238 L110.194,0.503 L104.425,0.503 L104.425,12.238 Z M119.338,21.147 L125.107,21.147 L125.107,0.503 L119.338,0.503 L119.338,21.147 Z M89.512,21.147 L95.281,21.147 L95.281,0.503 L89.512,0.503 L89.512,21.147 Z M74.599,12.238 L80.368,12.238 L80.368,0.503 L74.599,0.503 L74.599,12.238 Z M44.773,12.238 L50.542,12.238 L50.542,0.503 L44.773,0.503 L44.773,12.238 Z M59.686,21.147 L65.455,21.147 L65.455,0.503 L59.686,0.503 L59.686,21.147 Z M14.948,12.238 L20.717,12.238 L20.717,0.503 L14.948,0.503 L14.948,12.238 Z M0.035,21.147 L5.804,21.147 L5.804,0.503 L0.035,0.503 L0.035,21.147 Z M29.86,21.147 L35.63,21.147 L35.63,0.503 L29.86,0.503 L29.86,21.147 Z" id="path-93"></path>
        <linearGradient x1="-0.000412223001%" y1="50%" x2="99.9995878%" y2="50%" id="linearGradient-95">
            <stop stop-color="#FF4A91" offset="0%"></stop>
            <stop stop-color="#FA9A58" offset="100%"></stop>
        </linearGradient>
        <path d="M99.768,49.713 C99.768,77.146 77.529,99.385 50.096,99.385 C22.663,99.385 0.424,77.146 0.424,49.713 C0.424,22.28 22.663,0.04 50.096,0.04 C77.529,0.04 99.768,22.28 99.768,49.713" id="path-96"></path>
        <linearGradient x1="120.873933%" y1="22.712366%" x2="-9.31108069%" y2="72.8365796%" id="linearGradient-98">
            <stop stop-color="#FFDD5E" offset="0%"></stop>
            <stop stop-color="#FFAC45" offset="100%"></stop>
        </linearGradient>
        <path d="M63.119,29.476 C63.119,13.592 50.243,0.716 34.359,0.716 L7.039,0.716 C2.9,6.307 0.45,13.223 0.45,20.713 C0.45,39.295 15.513,54.359 34.096,54.359 C46.469,54.359 57.273,47.677 63.119,37.728 L63.119,29.476" id="path-99"></path>
        <path d="M55.411,55.541 C48.689,62.262 37.791,62.262 31.07,55.541 L5.524,29.995 C-1.197,23.274 -1.197,12.376 5.524,5.655 C12.246,-1.067 23.144,-1.067 29.866,5.655 L55.411,31.2 C62.133,37.921 62.133,48.819 55.411,55.541" id="path-101"></path>
        <linearGradient x1="-9.24332054%" y1="64.1147607%" x2="109.243571%" y2="35.8863232%" id="linearGradient-103">
            <stop stop-color="#E4ABFF" offset="0%"></stop>
            <stop stop-color="#39B8FC" offset="100%"></stop>
        </linearGradient>
        <path d="M16.638,18.223 C20.026,18.223 22.771,15.477 22.771,12.09 L22.771,6.73 C22.771,3.343 20.026,0.597 16.638,0.597 C13.251,0.597 10.505,3.343 10.505,6.73 L10.505,12.09 C10.505,15.477 13.251,18.223 16.638,18.223 Z M16.638,21.286 C7.969,21.286 0.941,28.314 0.941,36.983 L0.941,45.391 C5.433,48.394 10.829,50.151 16.638,50.151 C22.447,50.151 27.844,48.394 32.335,45.391 L32.335,36.983 C32.335,28.314 25.307,21.286 16.638,21.286 Z" id="path-104"></path>
        <linearGradient x1="-35.5768618%" y1="103.446543%" x2="211.550296%" y2="-31.1425919%" id="linearGradient-106">
            <stop stop-color="#FF4A91" offset="0%"></stop>
            <stop stop-color="#FA9A58" offset="100%"></stop>
        </linearGradient>
        <path d="M33.4034064,69.94 C15.1447005,68.8737292 0.668,53.7292335 0.668,35.203 C0.668,15.987 16.246,0.407 35.464,0.407 L366.658,0.407 C385.876,0.407 401.455,15.987 401.455,35.203 C401.455,53.7292335 386.97737,68.8737292 368.718597,69.94 L33.4034064,69.94 Z" id="path-107"></path>
        <linearGradient x1="23.4201061%" y1="76.8205821%" x2="66.9159437%" y2="114.435943%" id="linearGradient-109">
            <stop stop-color="#ACD3F6" offset="0%"></stop>
            <stop stop-color="#D5EDFD" offset="100%"></stop>
        </linearGradient>
        <path d="M0.612,0.407 L0.612,41.794 C0.612,45.452 3.577,48.417 7.235,48.417 L152.248,48.417 C155.906,48.417 158.871,45.452 158.871,41.794 L158.871,0.407 L0.612,0.407" id="path-110"></path>
        <linearGradient x1="48.5697496%" y1="14.3967923%" x2="53.7850612%" y2="121.103312%" id="linearGradient-112">
            <stop stop-color="#85C2F8" offset="0%"></stop>
            <stop stop-color="#8BC6F9" offset="100%"></stop>
        </linearGradient>
        <path d="M152.451,98.203 L7.439,98.203 C3.781,98.203 0.815,95.239 0.815,91.58 L0.815,7.481 C0.815,3.823 3.781,0.858 7.439,0.858 L152.451,0.858 C156.109,0.858 159.075,3.823 159.075,7.481 L159.075,91.58 C159.075,95.239 156.109,98.203 152.451,98.203" id="path-113"></path>
        <linearGradient x1="39.3586503%" y1="31.3524064%" x2="106.746493%" y2="149.441677%" id="linearGradient-115">
            <stop stop-color="#FFF6C2" offset="0%"></stop>
            <stop stop-color="#FFC833" offset="100%"></stop>
        </linearGradient>
        <path d="M0.815,21.78 C19.194,-1.93 37.584,-7.941 57.525,15.119 C81.481,42.825 92.542,58.535 107.488,43.577 C122.514,28.539 138.971,33.79 159.075,65.299 L159.075,69.58 C159.075,73.239 156.109,76.203 152.451,76.203 L7.439,76.203 C3.781,76.203 0.815,73.239 0.815,69.58 L0.815,21.78" id="path-116"></path>
        <linearGradient x1="0%" y1="50.00045%" x2="100%" y2="50.00045%" id="linearGradient-118">
            <stop stop-color="#FF4A91" offset="0%"></stop>
            <stop stop-color="#FA9A58" offset="100%"></stop>
        </linearGradient>
        <path d="M33.824,17.384 C33.824,26.527 26.412,33.938 17.269,33.938 C8.127,33.938 0.716,26.527 0.716,17.384 C0.716,8.241 8.127,0.829 17.269,0.829 C26.412,0.829 33.824,8.241 33.824,17.384" id="path-119"></path>
        <linearGradient x1="-148.755588%" y1="-24.6186837%" x2="127.508759%" y2="79.0984325%" id="linearGradient-121">
            <stop stop-color="#FF4A91" offset="0%"></stop>
            <stop stop-color="#FA9A58" offset="100%"></stop>
        </linearGradient>
        <path d="M109.603,28.999 L87.676,28.999 C50.555,28.999 33.996,15.738 26.217,1.705 C24.938,-0.6 21.619,-0.475 20.49,1.907 C15.739,11.927 15.375,21.721 16.724,29.996 C7.113,32.891 0.109,41.802 0.109,52.357 L0.109,81.781 C0.109,94.681 10.566,105.139 23.467,105.139 L109.603,105.139 C122.504,105.139 132.962,94.681 132.962,81.781 L132.962,52.357 C132.962,39.456 122.504,28.999 109.603,28.999" id="path-122"></path>
        <linearGradient x1="10.527425%" y1="102.935502%" x2="83.4761729%" y2="12.1889106%" id="linearGradient-124">
            <stop stop-color="#FFE13E" offset="0%"></stop>
            <stop stop-color="#FFAC45" offset="100%"></stop>
        </linearGradient>
        <path d="M0.06,113.161127 L0.06,50.6838732 C0.924586087,38.5714504 11.025328,29.014 23.358,29.014 L106.627,29.014 C143.747,29.014 160.306,15.752 168.086,1.72 C169.364,-0.586 172.683,-0.462 173.812,1.921 C178.563,11.942 178.928,21.736 177.578,30.011 C187.189,32.906 194.194,41.817 194.194,52.371 L194.194,111.474 C194.194,124.374 183.736,134.831 170.836,134.831 L23.358,134.831 C11.025328,134.831 0.924586087,125.27355 0.06,113.161127 Z" id="path-125"></path>
        <path d="M53.556,38.249 L75.962,38.249 L75.962,27.357 C75.962,14.456 65.504,3.999 52.603,3.999 L30.676,3.999 C18.535,3.999 8.606,2.574 0.453,0.174 C7.953,22.31 28.887,38.249 53.556,38.249" id="path-127"></path>
        <linearGradient x1="38.8152406%" y1="87.3749179%" x2="66.596962%" y2="-5.46369009%" id="linearGradient-129">
            <stop stop-color="#B8A843" offset="0%"></stop>
            <stop stop-color="#B8A344" offset="100%"></stop>
        </linearGradient>
        <path d="M210.918,89.164 C211.971,84.223 212.536,79.102 212.536,73.848 C212.536,33.433 179.773,0.67 139.358,0.67 C101.303,0.67 70.042,29.724 66.521,66.859 C63.326,66.293 60.044,65.981 56.685,65.981 C25.718,65.981 0.613,91.085 0.613,122.053 C0.613,153.022 25.718,178.125 56.685,178.125 C81.12,178.125 186.531,178.125 208.034,178.125 C232.628,178.125 252.566,158.188 252.566,133.593 C252.566,109.969 234.167,90.652 210.918,89.164" id="path-130"></path>
        <linearGradient x1="50.0001984%" y1="102.403426%" x2="50.0001984%" y2="-31.2924403%" id="linearGradient-132">
            <stop stop-color="#39B8FC" offset="0%"></stop>
            <stop stop-color="#E4ABFF" offset="100%"></stop>
        </linearGradient>
        <path d="M119.03,0.887 L0.363,84.125 C38.738,84.125 83.793,84.125 97.034,84.125 C121.628,84.125 141.566,64.188 141.566,39.593 C141.566,23.002 132.485,8.546 119.03,0.887" id="path-133"></path>
        <linearGradient x1="46.6470259%" y1="96.2985656%" x2="71.8307685%" y2="-47.3990245%" id="linearGradient-135">
            <stop stop-color="#6DB4FD" offset="0%"></stop>
            <stop stop-color="#E4ABFF" offset="100%"></stop>
        </linearGradient>
        <path d="M72.406,36.425 C72.406,56.392 56.22,72.579 36.252,72.579 C16.285,72.579 0.097,56.392 0.097,36.425 C0.097,16.457 16.285,0.271 36.252,0.271 C56.22,0.271 72.406,16.457 72.406,36.425" id="path-136"></path>
        <linearGradient x1="120.87292%" y1="22.71118%" x2="-9.31059757%" y2="72.8359241%" id="linearGradient-138">
            <stop stop-color="#FFDD5E" offset="0%"></stop>
            <stop stop-color="#FFAC45" offset="100%"></stop>
        </linearGradient>
        <path d="M0.196,11.403 C10.002,-0.56 35.254,3.719 46.264,0.061 L46.264,8.915 C46.264,20.37 37.438,29.884 26.015,30.751 C16.042,31.509 5.692,33.112 0.196,39.817 L0.196,11.403" id="path-139"></path>
        <linearGradient x1="90.9937484%" y1="50%" x2="-14.8547799%" y2="50%" id="linearGradient-141">
            <stop stop-color="#FFFFFF" offset="0%"></stop>
            <stop stop-color="#EAEBED" offset="100%"></stop>
        </linearGradient>
    </defs>
    <g id="Process" stroke="none" stroke-width="1" fill="none" fill-rule="evenodd">
        <g id="Group-3" transform="translate(409.000000, 478.000000)">
            <mask id="mask-2" fill="white">
                <use xlink:href="#path-1"></use>
            </mask>
            <g id="Clip-2"></g>
            <polygon id="Fill-1" mask="url(#mask-2)" points="0.776 10.592 91.551 10.592 91.551 0.446 0.776 0.446"></polygon>
        </g>
        <polygon id="Fill-4" points="376.741 478.446 484.112 478.446 484.112 411.339 376.741 411.339"></polygon>
        <g id="Group-8" transform="translate(200.000000, 87.000000)">
            <mask id="mask-4" fill="white">
                <use xlink:href="#path-3"></use>
            </mask>
            <g id="Clip-7"></g>
            <path d="M466.235,268.554 L0.473,268.554 L0.473,22.728 C0.473,10.522 10.367,0.627 22.574,0.627 L444.135,0.627 C456.341,0.627 466.235,10.522 466.235,22.728 L466.235,268.554" id="Fill-6" fill="url(#linearGradient-5)" mask="url(#mask-4)"></path>
        </g>
        <g id="Group-11" transform="translate(515.000000, 135.000000)">
            <mask id="mask-7" fill="white">
                <use xlink:href="#path-6"></use>
            </mask>
            <g id="Clip-10"></g>
            <path d="M47.268,263.398 L0.945,263.398 L0.945,0.369 L43.624,0.369 C45.637,0.369 47.268,2.001 47.268,4.013 L47.268,263.398" id="Fill-9" fill="url(#linearGradient-8)" mask="url(#mask-7)"></path>
        </g>
        <path d="M666.235,357.996 L666.235,330.729 C656.421,337.73 648.427,347.103 643.044,357.996 L666.235,357.996" id="Fill-12" fill="#25B5BB"></path>
        <g id="Group-15" transform="translate(200.000000, 87.000000)">
            <mask id="mask-10" fill="white">
                <use xlink:href="#path-9"></use>
            </mask>
            <g id="Clip-14"></g>
            <path d="M318.109,0.627 L22.574,0.627 C10.367,0.627 0.473,10.522 0.473,22.728 L0.473,223.432 L318.109,0.627" id="Fill-13" mask="url(#mask-10)"></path>
        </g>
        <g id="Group-18" transform="translate(200.000000, 87.000000)">
            <mask id="mask-12" fill="white">
                <use xlink:href="#path-11"></use>
            </mask>
            <g id="Clip-17"></g>
            <path d="M41.771,4.273 C41.818,3.049 41.815,1.836 41.795,0.627 L22.574,0.627 C10.367,0.627 0.473,10.522 0.473,22.728 L0.473,66.374 C24.035,55.245 40.732,31.636 41.771,4.273" id="Fill-16" fill="url(#linearGradient-13)" mask="url(#mask-12)"></path>
        </g>
        <g id="Group-21" transform="translate(200.000000, 355.000000)">
            <mask id="mask-15" fill="white">
                <use xlink:href="#path-14"></use>
            </mask>
            <g id="Clip-20"></g>
            <path d="M466.235,0.554 L0.473,0.554 L0.473,54.656 C0.473,61.327 5.881,66.736 12.553,66.736 L445.047,66.736 C456.749,66.736 466.235,57.249 466.235,45.547 L466.235,0.554" id="Fill-19" fill="url(#linearGradient-16)" mask="url(#mask-15)"></path>
        </g>
        <polygon id="Fill-22" fill="#90B5D2" points="397.086 421.736 456.434 421.736 456.434 354.915 397.086 354.915"></polygon>
        <g id="Group-25" transform="translate(397.000000, 195.000000)">
            <mask id="mask-18" fill="white">
                <use xlink:href="#path-17"></use>
            </mask>
            <g id="Clip-24"></g>
            <path d="M59.434,160.553 L59.434,15.583 C59.434,7.341 52.752,0.659 44.51,0.659 L0.086,0.659 L0.086,160.553 L59.434,160.553" id="Fill-23" fill="url(#linearGradient-19)" mask="url(#mask-18)"></path>
        </g>
        <g id="Group-28" transform="translate(515.000000, 355.000000)">
            <mask id="mask-21" fill="white">
                <use xlink:href="#path-20"></use>
            </mask>
            <g id="Clip-27"></g>
            <path d="M0.945,0.553 L0.945,37.976 C0.945,40.97 3.373,43.398 6.368,43.398 L41.94,43.398 C44.883,43.398 47.268,41.013 47.268,38.071 L47.268,0.553 L0.945,0.553" id="Fill-26" fill="url(#linearGradient-22)" mask="url(#mask-21)"></path>
        </g>
        <g id="Group-31" transform="translate(610.000000, 81.000000)">
            <mask id="mask-24" fill="white">
                <use xlink:href="#path-23"></use>
            </mask>
            <g id="Clip-30"></g>
            <path d="M34.135,0.625 L18,0.625 C7.555,9.107 0.878,22.045 0.878,36.548 C0.878,62.096 21.589,82.807 47.137,82.807 C50.252,82.807 53.293,82.495 56.235,81.907 L56.235,22.726 C56.235,10.52 46.341,0.625 34.135,0.625" id="Fill-29" mask="url(#mask-24)"></path>
        </g>
        <g id="Group-34" transform="translate(141.000000, 182.000000)">
            <mask id="mask-26" fill="white">
                <use xlink:href="#path-25"></use>
            </mask>
            <g id="Clip-33"></g>
            <path d="M300.254,200.784 L268.773,0.134 L15.377,0.134 C7.186,0.134 0.546,6.774 0.546,14.965 L0.546,302.203 C0.546,310.395 7.186,317.034 15.377,317.034 L253.489,317.034 C279.316,317.034 300.254,296.098 300.254,270.271 C300.254,244.443 300.254,200.784 300.254,200.784" id="Fill-32" fill="url(#linearGradient-27)" mask="url(#mask-26)"></path>
        </g>
        <g id="Group-37" transform="translate(162.000000, 203.000000)">
            <mask id="mask-29" fill="white">
                <use xlink:href="#path-28"></use>
            </mask>
            <g id="Clip-36"></g>
            <path d="M81.247,9.605 L60.951,9.605 C58.5,9.605 56.513,7.618 56.513,5.167 C56.513,2.716 58.5,0.729 60.951,0.729 L81.247,0.729 C83.698,0.729 85.684,2.716 85.684,5.167 C85.684,7.618 83.698,9.605 81.247,9.605 Z M126.913,9.605 L106.616,9.605 C104.166,9.605 102.179,7.618 102.179,5.167 C102.179,2.716 104.166,0.729 106.616,0.729 L126.913,0.729 C129.364,0.729 131.351,2.716 131.351,5.167 C131.351,7.618 129.364,9.605 126.913,9.605 Z M172.578,9.605 L152.283,9.605 C149.832,9.605 147.845,7.618 147.845,5.167 C147.845,2.716 149.832,0.729 152.283,0.729 L172.578,0.729 C175.03,0.729 177.016,2.716 177.016,5.167 C177.016,7.618 175.03,9.605 172.578,9.605 Z M218.244,9.605 L197.949,9.605 C195.497,9.605 193.511,7.618 193.511,5.167 C193.511,2.716 195.497,0.729 197.949,0.729 L218.244,0.729 C220.696,0.729 222.682,2.716 222.682,5.167 C222.682,7.618 220.696,9.605 218.244,9.605 Z M15.285,9.715 C13.095,9.715 11.189,8.094 10.892,5.863 C10.568,3.433 12.275,1.201 14.704,0.878 C15.444,0.78 16.2,0.729 16.951,0.729 L35.581,0.729 C38.032,0.729 40.019,2.716 40.019,5.167 C40.019,7.618 38.032,9.605 35.581,9.605 L16.951,9.605 C16.59,9.605 16.229,9.628 15.877,9.676 C15.679,9.702 15.48,9.715 15.285,9.715 Z M4.512,49.829 C2.061,49.829 0.075,47.843 0.075,45.391 L0.075,25.095 C0.075,22.644 2.061,20.657 4.512,20.657 C6.963,20.657 8.95,22.644 8.95,25.095 L8.95,45.391 C8.95,47.843 6.963,49.829 4.512,49.829 Z M4.512,95.495 C2.061,95.495 0.075,93.508 0.075,91.057 L0.075,70.761 C0.075,68.31 2.061,66.323 4.512,66.323 C6.963,66.323 8.95,68.31 8.95,70.761 L8.95,91.057 C8.95,93.508 6.963,95.495 4.512,95.495 Z M4.512,141.16 C2.061,141.16 0.075,139.172 0.075,136.722 L0.075,116.426 C0.075,113.976 2.061,111.989 4.512,111.989 C6.963,111.989 8.95,113.976 8.95,116.426 L8.95,136.722 C8.95,139.172 6.963,141.16 4.512,141.16 Z M4.512,186.826 C2.061,186.826 0.075,184.839 0.075,182.389 L0.075,162.092 C0.075,159.642 2.061,157.655 4.512,157.655 C6.963,157.655 8.95,159.642 8.95,162.092 L8.95,182.389 C8.95,184.839 6.963,186.826 4.512,186.826 Z M4.512,232.492 C2.061,232.492 0.075,230.505 0.075,228.055 L0.075,207.759 C0.075,205.309 2.061,203.322 4.512,203.322 C6.963,203.322 8.95,205.309 8.95,207.759 L8.95,228.055 C8.95,230.505 6.963,232.492 4.512,232.492 Z M254.073,247.946 C253.632,247.946 253.183,247.879 252.74,247.741 C250.402,247.004 249.103,244.513 249.838,242.175 C250.897,238.81 251.433,235.293 251.433,231.726 L251.433,223.385 C251.433,220.935 253.42,218.948 255.871,218.948 C258.323,218.948 260.309,220.935 260.309,223.385 L260.309,231.726 C260.309,236.199 259.635,240.609 258.305,244.837 C257.709,246.734 255.959,247.946 254.073,247.946 Z M12.703,274.643 C12.2,274.643 11.688,274.556 11.187,274.374 C4.54,271.958 0.075,265.581 0.075,258.508 L0.075,253.425 C0.075,250.974 2.061,248.987 4.512,248.987 C6.963,248.987 8.95,250.974 8.95,253.425 L8.95,258.508 C8.95,261.864 11.068,264.887 14.22,266.033 C16.524,266.87 17.712,269.416 16.875,271.721 C16.219,273.524 14.516,274.643 12.703,274.643 Z M220.635,275.185 C218.384,275.185 216.456,273.48 216.225,271.193 C215.979,268.755 217.756,266.578 220.195,266.332 C226.179,265.728 231.933,263.558 236.836,260.058 C238.83,258.635 241.601,259.097 243.026,261.09 C244.45,263.085 243.988,265.857 241.993,267.282 C235.835,271.679 228.606,274.404 221.086,275.163 C220.934,275.178 220.784,275.185 220.635,275.185 Z M58.282,275.385 L37.985,275.385 C35.534,275.385 33.547,273.397 33.547,270.947 C33.547,268.496 35.534,266.509 37.985,266.509 L58.282,266.509 C60.732,266.509 62.719,268.496 62.719,270.947 C62.719,273.397 60.732,275.385 58.282,275.385 Z M103.947,275.385 L83.651,275.385 C81.2,275.385 79.214,273.397 79.214,270.947 C79.214,268.496 81.2,266.509 83.651,266.509 L103.947,266.509 C106.398,266.509 108.385,268.496 108.385,270.947 C108.385,273.397 106.398,275.385 103.947,275.385 Z M149.613,275.385 L129.317,275.385 C126.866,275.385 124.879,273.397 124.879,270.947 C124.879,268.496 126.866,266.509 129.317,266.509 L149.613,266.509 C152.064,266.509 154.051,268.496 154.051,270.947 C154.051,273.397 152.064,275.385 149.613,275.385 Z M195.279,275.385 L174.983,275.385 C172.532,275.385 170.545,273.397 170.545,270.947 C170.545,268.496 172.532,266.509 174.983,266.509 L195.279,266.509 C197.729,266.509 199.716,268.496 199.716,270.947 C199.716,273.397 197.729,275.385 195.279,275.385 Z" id="Fill-35" fill="url(#linearGradient-30)" mask="url(#mask-29)"></path>
        </g>
        <g id="Group-40" transform="translate(394.000000, 135.000000)">
            <mask id="mask-32" fill="white">
                <use xlink:href="#path-31"></use>
            </mask>
            <g id="Clip-39"></g>
            <path d="M0.489,0.369 L0.489,270.506 C26.316,270.506 47.254,291.443 47.254,317.271 L47.254,47.134 C47.254,21.306 26.316,0.369 0.489,0.369" id="Fill-38" fill="url(#linearGradient-33)" mask="url(#mask-32)"></path>
        </g>
        <path d="M550.573,393.421 L515.388,393.421 C512.313,393.421 509.819,390.928 509.819,387.853 L509.819,135.962 C509.819,132.886 512.313,130.392 515.388,130.392 L550.573,130.392 C553.649,130.392 556.142,132.886 556.142,135.962 L556.142,387.853 C556.142,390.928 553.649,393.421 550.573,393.421" id="Fill-41" fill="#FFFFFF"></path>
        <g id="Group-44" transform="translate(509.000000, 130.000000)">
            <mask id="mask-35" fill="white">
                <use xlink:href="#path-34"></use>
            </mask>
            <g id="Clip-43"></g>
            <path d="M13.071,263.421 L6.388,263.421 C3.313,263.421 0.819,260.928 0.819,257.853 L0.819,5.962 C0.819,2.886 3.313,0.392 6.388,0.392 L13.071,0.392 L13.071,263.421" id="Fill-42" fill="url(#linearGradient-36)" mask="url(#mask-35)"></path>
        </g>
        <g id="Group-47" transform="translate(534.000000, 144.000000)">
            <mask id="mask-38" fill="white">
                <use xlink:href="#path-37"></use>
            </mask>
            <g id="Clip-46"></g>
            <polygon id="Fill-45" fill="url(#linearGradient-39)" mask="url(#mask-38)" points="0.096 6.962 22.142 6.962 22.142 0.801 0.096 0.801"></polygon>
        </g>
        <g id="Group-50" transform="translate(543.000000, 160.000000)">
            <mask id="mask-41" fill="white">
                <use xlink:href="#path-40"></use>
            </mask>
            <g id="Clip-49"></g>
            <polygon id="Fill-48" fill="url(#linearGradient-42)" mask="url(#mask-41)" points="0.61 6.888 13.142 6.888 13.142 0.727 0.61 0.727"></polygon>
        </g>
        <g id="Group-53" transform="translate(534.000000, 176.000000)">
            <mask id="mask-44" fill="white">
                <use xlink:href="#path-43"></use>
            </mask>
            <g id="Clip-52"></g>
            <polygon id="Fill-51" fill="url(#linearGradient-45)" mask="url(#mask-44)" points="0.096 6.814 22.142 6.814 22.142 0.653 0.096 0.653"></polygon>
        </g>
        <g id="Group-56" transform="translate(543.000000, 192.000000)">
            <mask id="mask-47" fill="white">
                <use xlink:href="#path-46"></use>
            </mask>
            <g id="Clip-55"></g>
            <polygon id="Fill-54" fill="url(#linearGradient-48)" mask="url(#mask-47)" points="0.61 6.74 13.142 6.74 13.142 0.578 0.61 0.578"></polygon>
        </g>
        <g id="Group-59" transform="translate(534.000000, 208.000000)">
            <mask id="mask-50" fill="white">
                <use xlink:href="#path-49"></use>
            </mask>
            <g id="Clip-58"></g>
            <polygon id="Fill-57" fill="url(#linearGradient-51)" mask="url(#mask-50)" points="0.096 6.665 22.142 6.665 22.142 0.504 0.096 0.504"></polygon>
        </g>
        <g id="Group-62" transform="translate(543.000000, 224.000000)">
            <mask id="mask-53" fill="white">
                <use xlink:href="#path-52"></use>
            </mask>
            <g id="Clip-61"></g>
            <polygon id="Fill-60" fill="url(#linearGradient-54)" mask="url(#mask-53)" points="0.61 6.591 13.142 6.591 13.142 0.43 0.61 0.43"></polygon>
        </g>
        <polygon id="Fill-63" fill="url(#linearGradient-55)" points="534.096 246.516 556.142 246.516 556.142 240.355 534.096 240.355"></polygon>
        <g id="Group-67" transform="translate(543.000000, 256.000000)">
            <mask id="mask-57" fill="white">
                <use xlink:href="#path-56"></use>
            </mask>
            <g id="Clip-66"></g>
            <polygon id="Fill-65" fill="url(#linearGradient-58)" mask="url(#mask-57)" points="0.61 6.442 13.142 6.442 13.142 0.281 0.61 0.281"></polygon>
        </g>
        <polygon id="Fill-68" fill="url(#linearGradient-59)" points="534.096 278.368 556.142 278.368 556.142 272.207 534.096 272.207"></polygon>
        <g id="Group-72" transform="translate(543.000000, 288.000000)">
            <mask id="mask-61" fill="white">
                <use xlink:href="#path-60"></use>
            </mask>
            <g id="Clip-71"></g>
            <polygon id="Fill-70" fill="url(#linearGradient-62)" mask="url(#mask-61)" points="0.61 6.294 13.142 6.294 13.142 0.133 0.61 0.133"></polygon>
        </g>
        <polygon id="Fill-73" fill="url(#linearGradient-63)" points="534.096 310.219 556.142 310.219 556.142 304.058 534.096 304.058"></polygon>
        <g id="Group-77" transform="translate(543.000000, 319.000000)">
            <mask id="mask-65" fill="white">
                <use xlink:href="#path-64"></use>
            </mask>
            <g id="Clip-76"></g>
            <polygon id="Fill-75" fill="url(#linearGradient-66)" mask="url(#mask-65)" points="0.61 7.145 13.142 7.145 13.142 0.984 0.61 0.984"></polygon>
        </g>
        <polygon id="Fill-78" fill="url(#linearGradient-67)" points="534.096 342.071 556.142 342.071 556.142 335.909 534.096 335.909"></polygon>
        <g id="Group-82" transform="translate(543.000000, 351.000000)">
            <mask id="mask-69" fill="white">
                <use xlink:href="#path-68"></use>
            </mask>
            <g id="Clip-81"></g>
            <polygon id="Fill-80" fill="url(#linearGradient-70)" mask="url(#mask-69)" points="0.61 6.996 13.142 6.996 13.142 0.835 0.61 0.835"></polygon>
        </g>
        <polygon id="Fill-83" fill="url(#linearGradient-71)" points="534.096 373.922 556.142 373.922 556.142 367.761 534.096 367.761"></polygon>
        <path d="M362.717,131.88 L307.871,131.88 C305.07,131.88 302.799,129.609 302.799,126.808 C302.799,124.007 305.07,121.736 307.871,121.736 L362.717,121.736 C365.517,121.736 367.788,124.007 367.788,126.808 C367.788,129.609 365.517,131.88 362.717,131.88" id="Fill-85" fill="#FFFFFF"></path>
        <path d="M329.135,151.705 L307.871,151.705 C305.07,151.705 302.799,149.434 302.799,146.634 C302.799,143.833 305.07,141.562 307.871,141.562 L329.135,141.562 C331.936,141.562 334.206,143.833 334.206,146.634 C334.206,149.434 331.936,151.705 329.135,151.705" id="Fill-86" fill="#FFFFFF"></path>
        <path d="M641.756,144.372 L585.092,144.372 C581.497,144.372 578.584,141.458 578.584,137.864 C578.584,134.27 581.497,131.356 585.092,131.356 L641.756,131.356 C645.35,131.356 648.263,134.27 648.263,137.864 C648.263,141.458 645.35,144.372 641.756,144.372" id="Fill-87" fill="#FFFFFF"></path>
        <g id="Group-90" transform="translate(612.000000, 131.000000)">
            <mask id="mask-73" fill="white">
                <use xlink:href="#path-72"></use>
            </mask>
            <g id="Clip-89"></g>
            <path d="M29.756,0.356 L0.974,0.356 C2.445,5.065 4.658,9.443 7.461,13.372 L29.756,13.372 C33.35,13.372 36.263,10.458 36.263,6.864 C36.263,3.27 33.35,0.356 29.756,0.356" id="Fill-88" fill="url(#linearGradient-74)" mask="url(#mask-73)"></path>
        </g>
        <path d="M624.402,172.764 L585.092,172.764 C581.497,172.764 578.584,169.85 578.584,166.256 C578.584,162.662 581.497,159.748 585.092,159.748 L624.402,159.748 C627.997,159.748 630.91,162.662 630.91,166.256 C630.91,169.85 627.997,172.764 624.402,172.764" id="Fill-91" fill="#FFFFFF"></path>
        <path d="M599.718,229.55 L585.092,229.55 C581.497,229.55 578.584,226.636 578.584,223.042 C578.584,219.448 581.497,216.533 585.092,216.533 L599.718,216.533 C603.312,216.533 606.225,219.448 606.225,223.042 C606.225,226.636 603.312,229.55 599.718,229.55" id="Fill-92" fill="#FF528D"></path>
        <path d="M641.756,229.55 L619.01,229.55 C615.415,229.55 612.502,226.636 612.502,223.042 C612.502,219.448 615.415,216.533 619.01,216.533 L641.756,216.533 C645.35,216.533 648.263,219.448 648.263,223.042 C648.263,226.636 645.35,229.55 641.756,229.55" id="Fill-93" fill="#FFFFFF"></path>
        <path d="M610.877,201.157 L585.092,201.157 C581.497,201.157 578.584,198.243 578.584,194.649 C578.584,191.055 581.497,188.141 585.092,188.141 L610.877,188.141 C614.471,188.141 617.385,191.055 617.385,194.649 C617.385,198.243 614.471,201.157 610.877,201.157" id="Fill-94" fill="#FFFFFF"></path>
        <path d="M641.756,201.157 L635.149,201.157 C631.555,201.157 628.64,198.243 628.64,194.649 C628.64,191.055 631.555,188.141 635.149,188.141 L641.756,188.141 C645.35,188.141 648.263,191.055 648.263,194.649 C648.263,198.243 645.35,201.157 641.756,201.157" id="Fill-95" fill="#385BFF"></path>
        <g id="Group-98" transform="translate(206.000000, 258.000000)">
            <mask id="mask-76" fill="white">
                <use xlink:href="#path-75"></use>
            </mask>
            <g id="Clip-97"></g>
            <path d="M152.634,40.978 L143.001,40.978 C140.746,40.978 138.919,42.806 138.919,45.061 C138.919,47.316 140.746,49.144 143.001,49.144 L152.634,49.144 C154.889,49.144 156.717,47.316 156.717,45.061 C156.717,42.806 154.889,40.978 152.634,40.978 Z M124.338,40.978 L112.674,40.978 C110.419,40.978 108.591,42.806 108.591,45.061 C108.591,47.316 110.419,49.144 112.674,49.144 L124.338,49.144 C126.593,49.144 128.421,47.316 128.421,45.061 C128.421,42.806 126.593,40.978 124.338,40.978 Z M16.637,40.978 L4.973,40.978 C2.718,40.978 0.89,42.806 0.89,45.061 C0.89,47.316 2.718,49.144 4.973,49.144 L16.637,49.144 C18.892,49.144 20.72,47.316 20.72,45.061 C20.72,42.806 18.892,40.978 16.637,40.978 Z M49.016,45.061 C49.016,42.806 47.189,40.978 44.934,40.978 L35.3,40.978 C33.046,40.978 31.218,42.806 31.218,45.061 C31.218,47.316 33.046,49.144 35.3,49.144 L44.934,49.144 C47.189,49.144 49.016,47.316 49.016,45.061 Z M79.18,22.97 C81.435,22.97 83.263,21.142 83.263,18.887 L83.263,4.921 C83.263,2.666 81.435,0.838 79.18,0.838 C76.926,0.838 75.098,2.666 75.098,4.921 L75.098,18.887 C75.098,21.142 76.926,22.97 79.18,22.97 Z M120.488,86.823 C115.928,91.382 110.74,95.08 105.128,97.867 L94.364,70.724 C93.533,68.628 91.162,67.602 89.064,68.434 C86.969,69.265 85.943,71.637 86.774,73.734 L97.575,100.973 C91.718,102.909 85.529,103.932 79.18,103.932 C72.862,103.932 66.696,102.923 60.788,100.962 L71.586,73.734 C72.417,71.637 71.391,69.265 69.296,68.434 C67.199,67.601 64.827,68.628 63.996,70.724 L51.688,101.763 C51.682,101.776 51.674,101.785 51.669,101.798 C51.663,101.814 51.661,101.83 51.655,101.846 L35.615,142.295 C34.783,144.391 35.809,146.764 37.906,147.596 C38.399,147.791 38.908,147.884 39.409,147.884 C41.034,147.884 42.57,146.908 43.205,145.305 L57.774,108.565 C64.645,110.9 71.824,112.097 79.18,112.097 C86.577,112.097 93.784,110.882 100.591,108.577 L115.155,145.305 C115.79,146.908 117.326,147.884 118.951,147.884 C119.451,147.884 119.961,147.79 120.454,147.596 C122.551,146.764 123.576,144.391 122.745,142.295 L108.15,105.49 C114.78,102.281 120.899,97.956 126.261,92.595 C127.856,91.001 127.856,88.415 126.262,86.823 C124.668,85.229 122.083,85.228 120.488,86.823 Z M79.18,34.492 C85.007,34.492 89.748,39.234 89.748,45.061 C89.748,50.888 85.007,55.629 79.18,55.629 C73.353,55.629 68.612,50.888 68.612,45.061 C68.612,39.234 73.353,34.492 79.18,34.492 Z M79.18,63.794 C89.51,63.794 97.913,55.39 97.913,45.061 C97.913,34.731 89.51,26.327 79.18,26.327 C68.851,26.327 60.447,34.731 60.447,45.061 C60.447,55.39 68.851,63.794 79.18,63.794 Z" id="Fill-96" fill="url(#linearGradient-77)" mask="url(#mask-76)"></path>
        </g>
        <path d="M290.925,137.864 C290.925,153.486 278.261,166.151 262.638,166.151 C247.016,166.151 234.351,153.486 234.351,137.864 C234.351,122.241 247.016,109.577 262.638,109.577 C278.261,109.577 290.925,122.241 290.925,137.864" id="Fill-99" fill="#FFFFFF"></path>
        <g id="Group-102" transform="translate(109.000000, 10.000000)">
            <mask id="mask-79" fill="white">
                <use xlink:href="#path-78"></use>
            </mask>
            <g id="Clip-101"></g>
            <path d="M63.943,11.044 L63.943,51.6 C63.943,58.252 58.551,63.643 51.9,63.643 L11.343,63.643 C4.671,63.643 -0.339,69.751 0.968,76.293 C6.999,106.488 34.204,129.041 66.445,127.816 C99.73,126.552 126.851,99.43 128.116,66.146 C129.34,33.905 106.786,6.7 76.592,0.669 C70.05,-0.638 63.943,4.372 63.943,11.044" id="Fill-100" fill="url(#linearGradient-80)" mask="url(#mask-79)"></path>
        </g>
        <g id="Group-105" transform="translate(99.000000, 0.000000)">
            <mask id="mask-82" fill="white">
                <use xlink:href="#path-81"></use>
            </mask>
            <g id="Clip-104"></g>
            <polygon id="Fill-103" fill="url(#linearGradient-83)" mask="url(#mask-82)" points="-98.94 598.94 744.566 598.94 744.566 0.711 -98.94 0.711"></polygon>
        </g>
        <g id="Group-108" transform="translate(572.000000, 355.000000)">
            <mask id="mask-85" fill="white">
                <use xlink:href="#path-84"></use>
            </mask>
            <g id="Clip-107"></g>
            <path d="M94.235,45.547 L94.235,0.553 L72.309,0.553 C67.753,8.963 64.775,18.354 63.828,28.344 C60.633,27.779 57.349,27.467 53.992,27.467 C28.879,27.467 7.624,43.978 0.484,66.736 L73.047,66.736 C75.972,66.736 78.76,66.143 81.295,65.071 C88.899,61.854 94.235,54.324 94.235,45.547" id="Fill-106" fill="url(#linearGradient-86)" mask="url(#mask-85)"></path>
        </g>
        <g id="Group-111" transform="translate(141.000000, 259.000000)">
            <mask id="mask-88" fill="white">
                <use xlink:href="#path-87"></use>
            </mask>
            <g id="Clip-110"></g>
            <path d="M122.566,0.66 L0.546,0.66 L0.546,30.776 L21.187,30.776 C24.668,30.776 26.082,35.255 23.233,37.254 L0.546,53.167 L0.546,92.191 L124.102,5.523 C126.241,4.022 125.179,0.66 122.566,0.66" id="Fill-109" fill="url(#linearGradient-89)" mask="url(#mask-88)"></path>
        </g>
        <path d="M166.512,314.989 C164.061,314.989 162.075,316.976 162.075,319.426 L162.075,336.791 L170.95,330.566 L170.95,319.426 C170.95,316.976 168.963,314.989 166.512,314.989" id="Fill-112" fill="#80B2FD"></path>
        <g id="Group-115" transform="translate(31.000000, 242.000000)">
            <mask id="mask-91" fill="white">
                <use xlink:href="#path-90"></use>
            </mask>
            <g id="Clip-114"></g>
            <path d="M115.654,37.911 L36.293,93.578 C33.881,95.271 30.561,93.544 30.561,90.598 L30.561,37.002 C30.561,33.847 33.119,31.289 36.274,31.289 L113.563,31.289 C117.121,31.289 118.567,35.868 115.654,37.911 Z M217.2,0.503 L7.701,0.503 C3.458,0.503 0.018,3.943 0.018,8.186 L0.018,153.659 C0.018,155.872 2.51,157.168 4.322,155.898 L218.769,5.474 C220.956,3.94 219.871,0.503 217.2,0.503 Z" id="Fill-113" fill="url(#linearGradient-92)" mask="url(#mask-91)"></path>
        </g>
        <g id="Group-118" transform="translate(60.000000, 242.000000)">
            <mask id="mask-94" fill="white">
                <use xlink:href="#path-93"></use>
            </mask>
            <g id="Clip-117"></g>
            <path d="M164.076,12.238 L169.846,12.238 L169.846,0.503 L164.076,0.503 L164.076,12.238 Z M134.251,12.238 L140.02,12.238 L140.02,0.503 L134.251,0.503 L134.251,12.238 Z M149.164,21.147 L154.933,21.147 L154.933,0.503 L149.164,0.503 L149.164,21.147 Z M104.425,12.238 L110.194,12.238 L110.194,0.503 L104.425,0.503 L104.425,12.238 Z M119.338,21.147 L125.107,21.147 L125.107,0.503 L119.338,0.503 L119.338,21.147 Z M89.512,21.147 L95.281,21.147 L95.281,0.503 L89.512,0.503 L89.512,21.147 Z M74.599,12.238 L80.368,12.238 L80.368,0.503 L74.599,0.503 L74.599,12.238 Z M44.773,12.238 L50.542,12.238 L50.542,0.503 L44.773,0.503 L44.773,12.238 Z M59.686,21.147 L65.455,21.147 L65.455,0.503 L59.686,0.503 L59.686,21.147 Z M14.948,12.238 L20.717,12.238 L20.717,0.503 L14.948,0.503 L14.948,12.238 Z M0.035,21.147 L5.804,21.147 L5.804,0.503 L0.035,0.503 L0.035,21.147 Z M29.86,21.147 L35.63,21.147 L35.63,0.503 L29.86,0.503 L29.86,21.147 Z" id="Fill-116" fill="url(#linearGradient-95)" mask="url(#mask-94)"></path>
        </g>
        <path d="M719.865,149.995 C717.492,152.368 713.643,152.368 711.27,149.995 L691.229,129.954 C688.856,127.58 688.856,123.733 691.229,121.359 C693.602,118.986 697.45,118.986 699.824,121.359 L719.865,141.4 C722.238,143.774 722.238,147.621 719.865,149.995" id="Fill-119" fill="#385BFF"></path>
        <g id="Group-122" transform="translate(613.000000, 43.000000)">
            <mask id="mask-97" fill="white">
                <use xlink:href="#path-96"></use>
            </mask>
            <g id="Clip-121"></g>
            <path d="M99.768,49.713 C99.768,77.146 77.529,99.385 50.096,99.385 C22.663,99.385 0.424,77.146 0.424,49.713 C0.424,22.28 22.663,0.04 50.096,0.04 C77.529,0.04 99.768,22.28 99.768,49.713" id="Fill-120" fill="url(#linearGradient-98)" mask="url(#mask-97)"></path>
        </g>
        <path d="M696.742,92.713 C696.742,111.295 681.678,126.359 663.096,126.359 C644.513,126.359 629.45,111.295 629.45,92.713 C629.45,74.131 644.513,59.067 663.096,59.067 C681.678,59.067 696.742,74.131 696.742,92.713" id="Fill-123" fill="#FFFFFF"></path>
        <g id="Group-126" transform="translate(629.000000, 72.000000)">
            <mask id="mask-100" fill="white">
                <use xlink:href="#path-99"></use>
            </mask>
            <g id="Clip-125"></g>
            <path d="M63.119,29.476 C63.119,13.592 50.243,0.716 34.359,0.716 L7.039,0.716 C2.9,6.307 0.45,13.223 0.45,20.713 C0.45,39.295 15.513,54.359 34.096,54.359 C46.469,54.359 57.273,47.677 63.119,37.728 L63.119,29.476" id="Fill-124" mask="url(#mask-100)"></path>
        </g>
        <g id="Group-129" transform="translate(704.000000, 134.000000)">
            <mask id="mask-102" fill="white">
                <use xlink:href="#path-101"></use>
            </mask>
            <g id="Clip-128"></g>
            <path d="M55.411,55.541 C48.689,62.262 37.791,62.262 31.07,55.541 L5.524,29.995 C-1.197,23.274 -1.197,12.376 5.524,5.655 C12.246,-1.067 23.144,-1.067 29.866,5.655 L55.411,31.2 C62.133,37.921 62.133,48.819 55.411,55.541" id="Fill-127" fill="url(#linearGradient-103)" mask="url(#mask-102)"></path>
        </g>
        <g id="Group-132" transform="translate(246.000000, 116.000000)">
            <mask id="mask-105" fill="white">
                <use xlink:href="#path-104"></use>
            </mask>
            <g id="Clip-131"></g>
            <path d="M16.638,18.223 C20.026,18.223 22.771,15.477 22.771,12.09 L22.771,6.73 C22.771,3.343 20.026,0.597 16.638,0.597 C13.251,0.597 10.505,3.343 10.505,6.73 L10.505,12.09 C10.505,15.477 13.251,18.223 16.638,18.223 Z M16.638,21.286 C7.969,21.286 0.941,28.314 0.941,36.983 L0.941,45.391 C5.433,48.394 10.829,50.151 16.638,50.151 C22.447,50.151 27.844,48.394 32.335,45.391 L32.335,36.983 C32.335,28.314 25.307,21.286 16.638,21.286 Z" id="Fill-130" fill="url(#linearGradient-106)" mask="url(#mask-105)"></path>
        </g>
        <path d="M193.977,451.687 C195.326,443.41 194.962,433.617 190.212,423.596 C189.082,421.214 185.763,421.089 184.485,423.395 C178.141,434.837 165.954,445.765 141.546,449.409 L141.546,484.203 C141.546,492.395 148.186,499.034 156.377,499.034 L210.593,499.034 L210.593,474.047 C210.593,463.492 203.588,454.581 193.977,451.687" id="Fill-133" fill="#3679FC"></path>
        <g id="Group-136" transform="translate(166.000000, 529.000000)">
            <mask id="mask-108" fill="white">
                <use xlink:href="#path-107"></use>
            </mask>
            <g id="Clip-135"></g>
            <polygon id="Fill-134" fill="url(#linearGradient-109)" mask="url(#mask-108)" points="-165.94 69.94 677.566 69.94 677.566 -528.289 -165.94 -528.289"></polygon>
        </g>
        <path d="M566.778,557.364 C563.6,541.422 549.534,529.407 532.658,529.407 L512.157,529.407 L512.157,534.006 C512.157,546.906 522.615,557.364 535.515,557.364 L566.778,557.364" id="Fill-137" fill="#95CEFC"></path>
        <g id="Group-140" transform="translate(259.000000, 529.000000)">
            <mask id="mask-111" fill="white">
                <use xlink:href="#path-110"></use>
            </mask>
            <g id="Clip-139"></g>
            <path d="M0.612,0.407 L0.612,41.794 C0.612,45.452 3.577,48.417 7.235,48.417 L152.248,48.417 C155.906,48.417 158.871,45.452 158.871,41.794 L158.871,0.407 L0.612,0.407" id="Fill-138" fill="url(#linearGradient-112)" mask="url(#mask-111)"></path>
        </g>
        <g id="Group-143" transform="translate(241.000000, 466.000000)">
            <mask id="mask-114" fill="white">
                <use xlink:href="#path-113"></use>
            </mask>
            <g id="Clip-142"></g>
            <path d="M152.451,98.203 L7.439,98.203 C3.781,98.203 0.815,95.239 0.815,91.58 L0.815,7.481 C0.815,3.823 3.781,0.858 7.439,0.858 L152.451,0.858 C156.109,0.858 159.075,3.823 159.075,7.481 L159.075,91.58 C159.075,95.239 156.109,98.203 152.451,98.203" id="Fill-141" fill="url(#linearGradient-115)" mask="url(#mask-114)"></path>
        </g>
        <g id="Group-146" transform="translate(241.000000, 488.000000)">
            <mask id="mask-117" fill="white">
                <use xlink:href="#path-116"></use>
            </mask>
            <g id="Clip-145"></g>
            <path d="M0.815,21.78 C19.194,-1.93 37.584,-7.941 57.525,15.119 C81.481,42.825 92.542,58.535 107.488,43.577 C122.514,28.539 138.971,33.79 159.075,65.299 L159.075,69.58 C159.075,73.239 156.109,76.203 152.451,76.203 L7.439,76.203 C3.781,76.203 0.815,73.239 0.815,69.58 L0.815,21.78" id="Fill-144" fill="url(#linearGradient-118)" mask="url(#mask-117)"></path>
        </g>
        <g id="Group-149" transform="translate(348.000000, 477.000000)">
            <mask id="mask-120" fill="white">
                <use xlink:href="#path-119"></use>
            </mask>
            <g id="Clip-148"></g>
            <path d="M33.824,17.384 C33.824,26.527 26.412,33.938 17.269,33.938 C8.127,33.938 0.716,26.527 0.716,17.384 C0.716,8.241 8.127,0.829 17.269,0.829 C26.412,0.829 33.824,8.241 33.824,17.384" id="Fill-147" fill="url(#linearGradient-121)" mask="url(#mask-120)"></path>
        </g>
        <path d="M201.464,529.407 C183.066,529.407 168.013,543.689 166.762,561.77 L187.235,561.77 C200.135,561.77 210.593,551.312 210.593,538.411 L210.593,529.407 L201.464,529.407" id="Fill-150" fill="#80BEF7"></path>
        <path d="M525.117,560.801 C525.117,568.149 519.16,574.106 511.812,574.106 C504.464,574.106 498.508,568.149 498.508,560.801 C498.508,553.453 504.464,547.496 511.812,547.496 C519.16,547.496 525.117,553.453 525.117,560.801 Z" id="Stroke-151" stroke="#FFFFFF" stroke-width="4"></path>
        <path d="M531.222,582.746 C530.573,582.746 529.925,582.499 529.43,582.003 L519.427,572.001 C518.436,571.011 518.436,569.406 519.427,568.415 C520.418,567.425 522.022,567.425 523.013,568.415 L533.015,578.417 C534.006,579.408 534.006,581.013 533.015,582.003 C532.519,582.499 531.871,582.746 531.222,582.746" id="Fill-152" fill="#FFFFFF"></path>
        <g id="Group-155" transform="translate(518.000000, 436.000000)">
            <mask id="mask-123" fill="white">
                <use xlink:href="#path-122"></use>
            </mask>
            <g id="Clip-154"></g>
            <path d="M109.603,28.999 L87.676,28.999 C50.555,28.999 33.996,15.738 26.217,1.705 C24.938,-0.6 21.619,-0.475 20.49,1.907 C15.739,11.927 15.375,21.721 16.724,29.996 C7.113,32.891 0.109,41.802 0.109,52.357 L0.109,81.781 C0.109,94.681 10.566,105.139 23.467,105.139 L109.603,105.139 C122.504,105.139 132.962,94.681 132.962,81.781 L132.962,52.357 C132.962,39.456 122.504,28.999 109.603,28.999" id="Fill-153" fill="url(#linearGradient-124)" mask="url(#mask-123)"></path>
        </g>
        <g id="Group-158" transform="translate(0.000000, 411.000000)">
            <mask id="mask-126" fill="white">
                <use xlink:href="#path-125"></use>
            </mask>
            <g id="Clip-157"></g>
            <polygon id="Fill-156" mask="url(#mask-126)" points="0.06 187.94 843.566 187.94 843.566 -410.289 0.06 -410.289"></polygon>
        </g>
        <path d="M117.949,507.953 L70.933,507.953 C66.713,507.953 63.292,511.376 63.292,515.595 C63.292,519.815 66.713,523.238 70.933,523.238 L117.949,523.238 C122.169,523.238 125.591,519.815 125.591,515.595 C125.591,511.376 122.169,507.953 117.949,507.953 Z M47.331,507.953 L28.523,507.953 C24.302,507.953 20.882,511.376 20.882,515.595 C20.882,519.815 24.302,523.238 28.523,523.238 L47.331,523.238 C51.552,523.238 54.973,519.815 54.973,515.595 C54.973,511.376 51.552,507.953 47.331,507.953 Z M66.688,489.434 C66.688,485.214 63.267,481.792 59.047,481.792 L28.523,481.792 C24.302,481.792 20.882,485.214 20.882,489.434 C20.882,493.654 24.302,497.075 28.523,497.075 L59.047,497.075 C63.267,497.075 66.688,493.654 66.688,489.434 Z" id="Fill-159" fill="#FFFFFF"></path>
        <g id="Group-162" transform="translate(575.000000, 461.000000)">
            <mask id="mask-128" fill="white">
                <use xlink:href="#path-127"></use>
            </mask>
            <g id="Clip-161"></g>
            <path d="M53.556,38.249 L75.962,38.249 L75.962,27.357 C75.962,14.456 65.504,3.999 52.603,3.999 L30.676,3.999 C18.535,3.999 8.606,2.574 0.453,0.174 C7.953,22.31 28.887,38.249 53.556,38.249" id="Fill-160" fill="url(#linearGradient-129)" mask="url(#mask-128)"></path>
        </g>
        <g id="Group-165" transform="translate(591.000000, 309.000000)">
            <mask id="mask-131" fill="white">
                <use xlink:href="#path-130"></use>
            </mask>
            <g id="Clip-164"></g>
            <path d="M210.918,89.164 C211.971,84.223 212.536,79.102 212.536,73.848 C212.536,33.433 179.773,0.67 139.358,0.67 C101.303,0.67 70.042,29.724 66.521,66.859 C63.326,66.293 60.044,65.981 56.685,65.981 C25.718,65.981 0.613,91.085 0.613,122.053 C0.613,153.022 25.718,178.125 56.685,178.125 C81.12,178.125 186.531,178.125 208.034,178.125 C232.628,178.125 252.566,158.188 252.566,133.593 C252.566,109.969 234.167,90.652 210.918,89.164" id="Fill-163" fill="url(#linearGradient-132)" mask="url(#mask-131)"></path>
        </g>
        <g id="Group-168" transform="translate(702.000000, 403.000000)">
            <mask id="mask-134" fill="white">
                <use xlink:href="#path-133"></use>
            </mask>
            <g id="Clip-167"></g>
            <path d="M119.03,0.887 L0.363,84.125 C38.738,84.125 83.793,84.125 97.034,84.125 C121.628,84.125 141.566,64.188 141.566,39.593 C141.566,23.002 132.485,8.546 119.03,0.887" id="Fill-166" fill="url(#linearGradient-135)" mask="url(#mask-134)"></path>
        </g>
        <path d="M799.033,487.125 C800.812,487.125 802.563,487.009 804.288,486.807 C799.487,472.472 785.959,462.139 770.008,462.139 C753.939,462.139 740.326,472.625 735.62,487.125 C763.656,487.125 789.534,487.125 799.033,487.125" id="Fill-169" fill="#57A4FE"></path>
        <g id="Group-172" transform="translate(746.000000, 452.000000)">
            <mask id="mask-137" fill="white">
                <use xlink:href="#path-136"></use>
            </mask>
            <g id="Clip-171"></g>
            <path d="M72.406,36.425 C72.406,56.392 56.22,72.579 36.252,72.579 C16.285,72.579 0.097,56.392 0.097,36.425 C0.097,16.457 16.285,0.271 36.252,0.271 C56.22,0.271 72.406,16.457 72.406,36.425" id="Fill-170" fill="url(#linearGradient-138)" mask="url(#mask-137)"></path>
        </g>
        <path d="M782.252,513.698 C778.751,513.698 775.912,510.861 775.912,507.359 L775.912,469.491 C775.912,465.99 778.751,463.152 782.252,463.152 C785.754,463.152 788.592,465.99 788.592,469.491 L788.592,507.359 C788.592,510.861 785.754,513.698 782.252,513.698" id="Fill-173" fill="#FFFFFF"></path>
        <path d="M801.185,494.765 L763.318,494.765 C759.817,494.765 756.978,491.927 756.978,488.425 C756.978,484.923 759.817,482.085 763.318,482.085 L801.185,482.085 C804.687,482.085 807.525,484.923 807.525,488.425 C807.525,491.927 804.687,494.765 801.185,494.765" id="Fill-174" fill="#FFFFFF"></path>
        <path d="M725.264,424.193 C729.997,434.97 722.43,448.714 708.364,454.891 C694.297,461.068 679.057,457.338 674.325,446.561 C669.593,435.783 677.159,422.039 691.225,415.863 C705.292,409.686 720.532,413.415 725.264,424.193" id="Fill-175" fill="#FFFFFF"></path>
        <polygon id="Fill-176" fill="#FFFFFF" points="716.196 432.626 726.6 432.626 726.6 356.403 716.196 356.403"></polygon>
        <g id="Group-179" transform="translate(716.000000, 345.000000)">
            <mask id="mask-140" fill="white">
                <use xlink:href="#path-139"></use>
            </mask>
            <g id="Clip-178"></g>
            <path d="M0.196,11.403 C10.002,-0.56 35.254,3.719 46.264,0.061 L46.264,8.915 C46.264,20.37 37.438,29.884 26.015,30.751 C16.042,31.509 5.692,33.112 0.196,39.817 L0.196,11.403" id="Fill-177" fill="url(#linearGradient-141)" mask="url(#mask-140)"></path>
        </g>
        <path d="M577.352,500.163 C580.102,497.413 580.101,492.955 577.352,490.205 L576.893,489.746 C574.143,486.997 569.685,486.997 566.935,489.746 L546.865,509.818 L546.877,509.83 C546.708,510.024 546.567,510.25 546.492,510.525 L543.531,521.39 C543.171,522.714 544.385,523.928 545.709,523.568 L556.574,520.607 C556.849,520.531 557.075,520.392 557.268,520.222 L557.281,520.235 L577.352,500.163" id="Fill-180" fill="#FFFFFF"></path>
        <path d="M587.305,490.21 C585.507,492.008 582.593,492.008 580.795,490.21 L576.888,486.305 C575.091,484.507 575.091,481.592 576.888,479.794 C578.686,477.996 581.6,477.996 583.398,479.794 L587.305,483.7 C589.102,485.498 589.102,488.412 587.305,490.21" id="Fill-181" fill="#FFFFFF"></path>
        <path d="M578.269,511.908 L573.803,511.908 C570.565,511.908 567.941,514.533 567.941,517.77 C567.941,521.007 570.565,523.632 573.803,523.632 L578.269,523.632 C581.508,523.632 584.132,521.007 584.132,517.77 C584.132,514.533 581.508,511.908 578.269,511.908" id="Fill-182" fill="#FFFFFF"></path>
        <path d="M619.742,511.908 L596.375,511.908 C593.138,511.908 590.513,514.533 590.513,517.77 C590.513,521.007 593.138,523.632 596.375,523.632 L619.742,523.632 C622.979,523.632 625.603,521.007 625.603,517.77 C625.603,514.533 622.979,511.908 619.742,511.908" id="Fill-183" fill="#FFFFFF"></path>
        <path d="M662.287,117.401 C646.309,117.401 632.942,106.26 629.507,91.324 C629.488,91.787 629.45,92.245 629.45,92.713 C629.45,111.295 644.513,126.359 663.096,126.359 C675.469,126.359 686.273,119.677 692.119,109.728 C692.119,109.728 692.11,107.108 692.095,104.51 C692.087,103.087 690.268,102.486 689.428,103.634 C683.305,111.98 673.431,117.401 662.287,117.401" id="Fill-184" fill="#19B0C3"></path>
        <path d="M210.411,469.509 L200.431,469.509 C197.98,469.509 195.993,471.496 195.993,473.947 C195.993,476.397 197.98,478.385 200.431,478.385 L211.038,478.385 L211.038,474.852 C211.038,473.012 210.813,471.226 210.411,469.509" id="Fill-185" fill="#80B2FD"></path>
    </g>
</svg>